<svg id="svg" version="1.1" xmlns="http://www.w3.org/2000/svg" xmlns:xlink="http://www.w3.org/1999/xlink" width="400" height="400" viewBox="0, 0, 400,400"><g id="svgg"><path id="path0" d="M28.125 200.000 L 28.125 371.875 200.000 371.875 L 371.875 371.875 371.875 200.000 L 371.875 28.125 200.000 28.125 L 28.125 28.125 28.125 200.000 M359.766 200.000 L 359.766 359.766 200.000 359.766 L 40.234 359.766 40.234 200.000 L 40.234 40.234 200.000 40.234 L 359.766 40.234 359.766 200.000 M89.063 67.340 C 83.062 68.674,78.527 73.447,77.347 79.672 C 77.092 81.016,76.953 105.473,76.953 149.046 L 76.953 216.346 75.488 216.820 C 61.441 221.368,58.838 240.557,71.276 247.867 C 72.142 248.376,73.071 249.285,73.339 249.885 C 73.607 250.485,74.530 251.731,75.390 252.654 L 76.953 254.331 76.956 270.037 C 76.959 287.064,77.166 289.521,78.881 292.919 C 80.024 295.183,83.161 298.470,84.963 299.291 C 85.517 299.543,86.762 300.939,87.728 302.393 C 89.858 305.596,91.212 306.785,94.531 308.363 L 97.070 309.570 114.941 309.686 L 132.813 309.802 132.813 321.307 L 132.813 332.813 136.914 332.813 L 141.016 332.813 141.016 337.109 L 141.016 341.406 161.328 341.406 L 181.641 341.406 181.641 310.938 L 181.641 280.469 223.025 280.469 L 264.410 280.469 263.381 282.715 C 261.495 286.830,261.705 292.638,263.899 297.009 L 264.848 298.901 259.290 304.272 L 253.731 309.643 251.264 308.488 C 246.684 306.345,240.512 306.633,236.088 309.196 L 234.480 310.128 232.865 308.887 C 231.312 307.693,231.250 307.561,231.250 305.456 C 231.250 300.677,229.062 296.542,225.219 294.062 C 223.564 292.995,222.597 292.037,222.007 290.881 C 217.832 282.705,206.899 281.241,200.506 288.001 C 194.532 294.318,196.097 304.331,203.733 308.640 C 205.022 309.367,205.868 310.136,206.012 310.711 C 207.278 315.757,216.146 319.442,222.163 317.424 L 224.210 316.737 225.928 318.145 L 227.647 319.553 227.445 322.785 C 227.101 328.295,228.909 332.847,232.914 336.554 C 234.172 337.719,235.360 338.672,235.554 338.672 C 235.748 338.672,236.888 339.999,238.088 341.621 C 250.268 358.091,276.616 342.919,267.467 324.704 L 266.490 322.758 272.085 317.173 L 277.680 311.588 280.050 312.651 C 284.089 314.464,286.916 314.650,292.188 313.451 L 293.164 313.229 293.164 317.064 C 293.164 322.576,295.453 326.625,299.709 328.641 C 300.678 329.100,301.450 329.873,301.985 330.923 C 305.246 337.314,313.625 339.912,320.210 336.575 C 329.267 331.986,329.624 318.562,320.820 313.594 C 319.230 312.697,318.490 311.964,317.795 310.598 C 315.485 306.058,311.508 303.711,306.125 303.711 L 302.681 303.711 302.904 302.734 C 304.092 297.529,303.997 294.312,302.556 290.948 L 301.999 289.648 306.697 284.922 L 311.394 280.196 313.728 281.138 C 331.829 288.450,345.890 262.575,329.822 251.521 L 328.125 250.353 328.125 219.122 L 328.125 187.891 332.422 187.891 L 336.719 187.891 336.719 159.810 C 336.719 128.529,336.824 129.857,334.013 125.772 C 333.093 124.435,331.575 122.974,329.965 121.875 C 328.151 120.637,326.938 119.418,325.862 117.752 C 323.534 114.148,319.574 111.783,314.800 111.146 L 312.999 110.906 312.790 107.699 C 312.421 102.019,309.453 96.943,305.056 94.472 C 304.100 93.935,303.031 92.784,302.130 91.325 C 300.447 88.598,297.730 86.339,294.630 85.087 L 292.383 84.180 238.982 84.074 L 185.582 83.968 182.349 79.484 C 179.614 75.691,178.955 75.000,178.072 75.000 C 177.201 75.000,176.524 74.322,173.977 70.898 L 170.927 66.797 131.069 66.830 C 101.189 66.854,90.673 66.982,89.063 67.340 M171.478 78.180 C 173.307 80.681,179.067 88.457,184.277 95.461 C 189.487 102.464,193.750 108.273,193.750 108.369 C 193.750 108.465,176.085 108.560,154.494 108.581 C 109.965 108.623,112.574 108.440,107.943 111.849 C 104.940 114.059,103.687 115.594,101.989 119.141 L 100.586 122.070 100.482 170.995 L 100.379 219.919 97.262 221.486 L 94.145 223.054 92.755 221.515 C 90.992 219.564,88.271 217.828,85.645 216.979 L 83.594 216.316 83.574 201.615 C 83.463 117.169,83.646 80.318,84.184 79.031 C 85.152 76.714,86.267 75.491,88.364 74.446 L 90.395 73.434 129.273 73.533 L 168.151 73.633 171.478 78.180 M292.858 91.358 C 294.800 92.358,296.675 94.349,297.502 96.289 C 298.155 97.821,298.499 107.491,297.921 108.069 C 297.799 108.191,276.831 108.324,251.326 108.366 L 204.953 108.442 198.373 99.631 L 191.794 90.820 194.432 90.625 C 203.453 89.957,291.411 90.612,292.858 91.358 M221.875 132.617 L 221.875 147.656 175.781 147.656 L 129.688 147.656 129.682 176.855 L 129.677 206.055 120.642 210.352 C 115.673 212.715,111.105 214.860,110.491 215.118 L 109.375 215.587 109.375 170.086 C 109.375 119.874,109.214 123.126,111.836 120.362 C 114.681 117.364,109.895 117.596,169.043 117.587 L 221.875 117.578 221.875 132.617 M316.516 118.105 C 322.156 120.468,322.052 119.914,322.179 148.308 L 322.288 172.593 308.898 172.732 C 301.533 172.808,295.376 172.812,295.215 172.740 C 295.054 172.669,294.922 166.996,294.922 160.133 L 294.922 147.656 261.719 147.656 L 228.516 147.656 228.516 132.617 L 228.516 117.578 271.888 117.578 C 307.392 117.578,315.487 117.674,316.516 118.105 M288.672 196.051 L 288.672 229.211 287.207 229.414 C 286.401 229.525,262.363 229.589,233.789 229.554 L 181.836 229.492 181.731 220.215 L 181.626 210.938 177.532 210.938 L 173.438 210.938 173.438 207.803 L 173.438 204.669 178.945 201.948 L 184.452 199.226 186.127 200.950 C 191.050 206.015,200.567 206.867,206.223 202.747 C 207.733 201.647,210.011 203.033,210.372 205.272 C 211.012 209.240,213.601 212.929,216.978 214.686 C 218.698 215.581,219.335 216.185,219.998 217.548 C 226.397 230.707,247.557 222.685,244.232 208.361 L 243.860 206.762 249.290 202.307 C 255.338 197.345,255.317 197.356,257.038 198.246 C 261.453 200.529,268.023 199.396,271.839 195.693 C 278.136 189.581,276.677 178.668,269.019 174.606 C 267.826 173.973,267.153 173.299,266.834 172.416 C 264.621 166.298,254.991 162.932,248.884 166.143 C 242.995 169.239,240.368 175.359,241.898 182.422 C 242.173 183.693,242.087 183.871,240.669 184.961 C 239.830 185.605,237.461 187.513,235.403 189.200 L 231.661 192.267 229.991 191.468 C 225.091 189.124,219.656 189.474,215.799 192.383 C 213.852 193.851,213.021 192.873,212.807 188.859 C 212.534 183.744,210.189 179.720,205.835 176.900 C 204.621 176.113,203.458 174.875,202.548 173.401 C 194.191 159.861,173.895 166.167,173.672 182.372 L 173.633 185.252 165.820 188.951 C 150.858 196.035,144.824 198.828,144.484 198.828 C 144.292 198.828,144.141 190.910,144.141 180.859 L 144.141 162.891 216.406 162.891 L 288.672 162.891 288.672 196.051 M257.322 171.695 C 262.961 174.051,263.207 181.746,257.734 184.605 C 256.519 185.240,252.638 185.341,251.564 184.767 C 250.950 184.438,249.474 185.496,242.163 191.505 C 237.393 195.425,232.828 199.160,232.018 199.805 C 230.647 200.895,230.548 201.114,230.585 202.956 C 230.767 211.825,217.508 212.626,216.514 203.807 L 216.325 202.131 210.604 198.451 C 207.457 196.428,202.872 193.471,200.413 191.881 L 195.944 188.990 193.636 190.094 C 182.293 195.515,174.194 179.136,185.352 173.338 C 191.728 170.025,199.690 175.970,198.644 183.262 L 198.400 184.961 204.946 189.063 C 208.546 191.318,213.042 194.175,214.936 195.410 C 218.738 197.889,218.788 197.905,220.059 197.073 C 221.507 196.123,224.228 195.924,225.945 196.641 C 226.830 197.011,227.631 197.132,227.886 196.935 C 228.125 196.750,232.163 193.453,236.859 189.608 C 241.555 185.763,245.961 182.188,246.650 181.664 C 247.827 180.770,247.893 180.590,247.737 178.705 C 247.304 173.478,252.498 169.679,257.322 171.695 M313.577 209.863 L 313.677 240.234 311.792 240.234 C 300.662 240.234,292.109 252.305,295.841 262.748 C 296.794 265.415,301.073 265.234,237.031 265.234 L 178.516 265.234 178.516 259.766 L 178.516 254.297 180.176 254.295 C 181.089 254.294,202.139 254.291,226.953 254.288 C 251.768 254.285,272.466 254.178,272.949 254.049 L 273.828 253.815 273.828 244.876 L 273.828 235.938 284.375 235.938 L 294.922 235.938 294.922 207.610 L 294.922 179.283 304.199 179.387 L 313.477 179.492 313.577 209.863 M248.583 190.253 C 251.459 191.525,251.155 192.120,245.184 196.903 L 240.030 201.032 238.082 199.783 C 237.010 199.096,236.198 198.380,236.277 198.193 C 236.387 197.932,246.507 189.472,246.728 189.457 C 246.754 189.455,247.589 189.813,248.583 190.253 M179.271 194.141 C 179.275 194.248,175.884 195.938,171.737 197.895 L 164.195 201.454 159.036 201.640 C 156.198 201.743,154.015 201.689,154.184 201.521 C 154.354 201.354,159.414 198.867,165.430 195.996 L 176.367 190.776 177.816 192.361 C 178.613 193.232,179.268 194.033,179.271 194.141 M167.188 222.070 L 167.188 235.938 217.188 235.938 L 267.188 235.938 267.188 241.797 L 267.188 247.656 219.531 247.656 L 171.875 247.656 171.875 256.445 L 171.875 265.234 169.534 265.234 L 167.192 265.234 167.092 295.801 L 166.992 326.367 153.027 326.470 L 139.063 326.572 139.063 267.388 L 139.063 208.203 153.125 208.203 L 167.188 208.203 167.188 222.070 M129.688 252.960 L 129.688 292.638 128.546 293.780 L 127.404 294.922 117.434 294.922 L 107.464 294.922 108.317 292.676 C 109.163 290.446,109.171 290.189,109.370 256.534 L 109.570 222.638 117.578 218.812 C 121.982 216.708,126.289 214.611,127.148 214.151 C 128.008 213.692,128.931 213.308,129.199 213.299 C 129.587 213.285,129.688 221.468,129.688 252.960 M84.784 223.447 C 94.478 228.392,92.022 242.515,81.212 243.986 C 75.222 244.801,69.532 239.543,69.544 233.203 C 69.558 225.354,77.969 219.970,84.784 223.447 M100.001 289.449 C 98.089 296.549,87.511 296.552,84.215 289.453 C 83.344 287.577,82.956 269.708,83.481 255.581 L 83.687 250.030 85.105 249.571 C 92.962 247.032,97.586 240.365,97.170 232.178 L 96.989 228.614 98.592 227.838 L 100.195 227.061 100.295 257.523 C 100.360 277.117,100.255 288.507,100.001 289.449 M316.675 247.594 C 328.951 253.857,320.366 272.849,307.830 267.162 L 306.090 266.373 297.347 275.116 L 288.604 283.859 289.224 285.946 C 290.035 288.676,290.006 289.777,289.049 292.618 L 288.255 294.976 295.570 302.588 L 302.884 310.200 304.372 309.948 C 312.500 308.575,316.614 319.725,309.218 323.084 C 303.970 325.467,299.096 322.142,299.262 316.291 L 299.338 313.637 294.884 309.064 C 292.434 306.549,289.140 303.132,287.564 301.471 L 284.699 298.452 283.463 299.123 C 279.748 301.139,273.152 299.403,270.465 295.703 C 264.262 287.162,272.898 275.400,282.617 279.153 C 283.477 279.485,284.462 279.785,284.808 279.820 C 285.153 279.854,289.322 276.065,294.072 271.399 L 302.708 262.915 302.135 261.291 C 298.907 252.142,308.281 243.312,316.675 247.594 M298.973 282.070 L 297.372 283.671 295.756 282.651 C 293.166 281.016,293.568 280.469,297.358 280.469 L 300.574 280.469 298.973 282.070 M213.680 290.825 C 215.639 291.838,216.982 294.296,217.057 297.007 L 217.122 299.346 227.254 307.454 L 237.387 315.561 239.494 314.519 C 248.904 309.864,258.825 320.199,253.670 329.286 C 247.377 340.381,231.257 333.411,234.070 320.813 C 234.342 319.594,234.244 319.472,230.957 316.906 C 229.090 315.450,224.494 311.746,220.743 308.676 C 216.022 304.813,213.734 303.174,213.309 303.353 C 207.111 305.954,201.057 299.831,203.940 293.876 C 205.679 290.284,210.011 288.927,213.680 290.825 M272.051 305.823 C 272.606 306.894,272.597 306.905,267.183 312.309 C 261.133 318.348,260.592 318.556,259.098 315.423 L 258.436 314.035 263.858 308.603 L 269.280 303.171 270.388 303.960 C 270.997 304.394,271.746 305.232,272.051 305.823 " stroke="none" fill="#070607" fill-rule="evenodd"></path><path id="path1" d="M30.962 28.015 C 31.556 28.104,32.435 28.102,32.916 28.009 C 33.396 27.917,32.910 27.843,31.836 27.846 C 30.762 27.849,30.369 27.925,30.962 28.015 M37.793 28.010 C 38.276 28.103,39.067 28.103,39.551 28.010 C 40.034 27.917,39.639 27.841,38.672 27.841 C 37.705 27.841,37.310 27.917,37.793 28.010 M45.616 28.021 C 46.535 28.103,47.941 28.102,48.741 28.018 C 49.541 27.934,48.789 27.867,47.070 27.868 C 45.352 27.870,44.697 27.938,45.616 28.021 M54.806 28.026 C 57.128 28.095,60.819 28.095,63.010 28.026 C 65.200 27.956,63.301 27.899,58.789 27.900 C 54.277 27.900,52.485 27.957,54.806 28.026 M79.395 28.027 C 86.216 28.087,97.378 28.087,104.199 28.027 C 111.021 27.967,105.439 27.918,91.797 27.918 C 78.154 27.918,72.573 27.967,79.395 28.027 M118.272 28.021 C 119.191 28.103,120.597 28.102,121.397 28.018 C 122.197 27.934,121.445 27.867,119.727 27.868 C 118.008 27.870,117.353 27.938,118.272 28.021 M123.535 28.004 C 123.911 28.102,124.526 28.102,124.902 28.004 C 125.278 27.905,124.971 27.825,124.219 27.825 C 123.467 27.825,123.159 27.905,123.535 28.004 M128.631 28.025 C 130.306 28.098,132.943 28.098,134.491 28.024 C 136.038 27.950,134.668 27.890,131.445 27.891 C 128.223 27.891,126.956 27.952,128.631 28.025 M144.053 28.021 C 144.972 28.103,146.378 28.102,147.178 28.018 C 147.978 27.934,147.227 27.867,145.508 27.868 C 143.789 27.870,143.135 27.938,144.053 28.021 M154.206 28.017 C 154.908 28.104,155.963 28.103,156.550 28.013 C 157.137 27.924,156.563 27.853,155.273 27.855 C 153.984 27.858,153.504 27.931,154.206 28.017 M158.301 28.004 C 158.677 28.102,159.292 28.102,159.668 28.004 C 160.044 27.905,159.736 27.825,158.984 27.825 C 158.232 27.825,157.925 27.905,158.301 28.004 M162.022 28.021 C 162.941 28.103,164.347 28.102,165.147 28.018 C 165.947 27.934,165.195 27.867,163.477 27.868 C 161.758 27.870,161.103 27.938,162.022 28.021 M170.605 28.025 C 172.593 28.096,175.845 28.096,177.832 28.025 C 179.819 27.955,178.193 27.897,174.219 27.897 C 170.244 27.897,168.618 27.955,170.605 28.025 M183.110 28.011 C 183.596 28.104,184.299 28.101,184.673 28.003 C 185.046 27.905,184.648 27.829,183.789 27.833 C 182.930 27.837,182.624 27.917,183.110 28.011 M192.501 28.026 C 194.715 28.096,198.230 28.095,200.314 28.025 C 202.397 27.955,200.586 27.898,196.289 27.899 C 191.992 27.899,190.288 27.956,192.501 28.026 M205.181 28.015 C 205.775 28.104,206.654 28.102,207.134 28.009 C 207.615 27.917,207.129 27.843,206.055 27.846 C 204.980 27.849,204.587 27.925,205.181 28.015 M220.605 28.027 C 225.171 28.089,232.642 28.089,237.207 28.027 C 241.772 27.964,238.037 27.913,228.906 27.913 C 219.775 27.913,216.040 27.964,220.605 28.027 M246.191 28.004 C 246.567 28.102,247.183 28.102,247.559 28.004 C 247.935 27.905,247.627 27.825,246.875 27.825 C 246.123 27.825,245.815 27.905,246.191 28.004 M257.154 28.027 C 260.766 28.091,266.567 28.091,270.044 28.027 C 273.522 27.962,270.566 27.909,263.477 27.909 C 256.387 27.909,253.541 27.962,257.154 28.027 M281.325 28.026 C 284.051 28.093,288.621 28.093,291.481 28.026 C 294.340 27.960,292.109 27.905,286.523 27.905 C 280.938 27.904,278.598 27.959,281.325 28.026 M318.262 28.025 C 320.249 28.096,323.501 28.096,325.488 28.025 C 327.476 27.955,325.850 27.897,321.875 27.897 C 317.900 27.897,316.274 27.955,318.262 28.025 M332.129 28.024 C 333.579 28.099,335.952 28.099,337.402 28.024 C 338.853 27.949,337.666 27.887,334.766 27.887 C 331.865 27.887,330.679 27.949,332.129 28.024 M347.584 28.027 C 351.519 28.091,357.847 28.091,361.646 28.027 C 365.446 27.963,362.227 27.911,354.492 27.911 C 346.758 27.911,343.649 27.963,347.584 28.027 M194.432 90.625 L 191.794 90.820 198.373 99.631 L 204.953 108.442 251.326 108.366 C 276.831 108.324,297.799 108.191,297.921 108.069 C 298.499 107.491,298.155 97.821,297.502 96.289 C 296.675 94.349,294.800 92.358,292.858 91.358 C 291.411 90.612,203.453 89.957,194.432 90.625 M308.203 97.070 C 308.932 97.822,309.616 98.438,309.724 98.438 C 309.831 98.438,309.323 97.822,308.594 97.070 C 307.865 96.318,307.181 95.703,307.073 95.703 C 306.966 95.703,307.474 96.318,308.203 97.070 M114.648 118.320 C 113.789 118.719,112.524 119.638,111.836 120.362 C 109.214 123.126,109.375 119.874,109.375 170.086 L 109.375 215.587 110.491 215.118 C 111.105 214.860,115.673 212.715,120.642 210.352 L 129.677 206.055 129.682 176.855 L 129.688 147.656 175.781 147.656 L 221.875 147.656 221.875 132.617 L 221.875 117.578 169.043 117.587 C 118.410 117.595,116.146 117.625,114.648 118.320 M336.904 160.156 C 336.904 175.518,336.952 181.802,337.012 174.121 C 337.071 166.440,337.071 153.872,337.012 146.191 C 336.952 138.511,336.904 144.795,336.904 160.156 M144.318 177.930 C 144.318 186.309,144.370 189.681,144.433 185.423 C 144.496 181.166,144.496 174.310,144.433 170.189 C 144.370 166.067,144.318 169.551,144.318 177.930 M288.468 196.680 C 288.468 214.727,288.516 222.052,288.574 212.959 C 288.633 203.866,288.633 189.100,288.574 180.147 C 288.516 171.193,288.468 178.633,288.468 196.680 M252.220 171.660 C 246.878 173.565,246.045 183.423,251.117 184.698 C 254.661 185.589,257.291 185.200,259.231 183.497 C 265.159 178.291,259.660 169.006,252.220 171.660 M271.094 175.903 C 271.094 175.971,271.665 176.542,272.363 177.173 L 273.633 178.320 272.486 177.051 C 271.416 175.867,271.094 175.602,271.094 175.903 M294.922 207.610 L 294.922 235.938 284.375 235.938 L 273.828 235.938 273.828 244.876 L 273.828 253.815 272.949 254.049 C 272.466 254.178,251.768 254.285,226.953 254.288 C 202.139 254.291,181.089 254.294,180.176 254.295 L 178.516 254.297 178.516 259.766 L 178.516 265.234 237.031 265.234 C 301.073 265.234,296.794 265.415,295.841 262.748 C 292.109 252.305,300.662 240.234,311.792 240.234 L 313.677 240.234 313.577 209.863 L 313.477 179.492 304.199 179.387 L 294.922 179.283 294.922 207.610 M275.888 186.328 C 275.888 187.295,275.964 187.690,276.057 187.207 C 276.150 186.724,276.150 185.933,276.057 185.449 C 275.964 184.966,275.888 185.361,275.888 186.328 M196.996 187.035 L 195.828 188.914 199.183 191.096 C 217.457 202.977,216.181 202.283,216.813 200.684 C 217.088 199.985,217.626 199.063,218.007 198.633 C 218.793 197.748,219.218 198.062,205.369 189.298 C 197.731 184.465,198.469 184.665,196.996 187.035 M154.079 201.599 C 153.959 201.794,154.310 201.953,154.860 201.953 C 156.057 201.953,156.153 201.730,155.079 201.449 C 154.649 201.337,154.199 201.404,154.079 201.599 M173.571 208.008 C 173.573 209.727,173.642 210.381,173.724 209.462 C 173.807 208.544,173.805 207.137,173.721 206.337 C 173.638 205.537,173.570 206.289,173.571 208.008 M181.640 218.866 L 181.834 227.148 181.941 219.168 C 182.000 214.779,181.912 211.053,181.747 210.886 C 181.581 210.720,181.533 214.311,181.640 218.866 M127.148 214.151 C 126.289 214.611,121.982 216.708,117.578 218.812 L 109.570 222.638 109.370 256.534 C 109.171 290.189,109.163 290.446,108.317 292.676 L 107.464 294.922 117.434 294.922 L 127.404 294.922 128.546 293.780 L 129.688 292.638 129.688 252.960 C 129.688 221.468,129.587 213.285,129.199 213.299 C 128.931 213.308,128.008 213.692,127.148 214.151 M77.864 222.619 C 69.330 224.798,66.671 235.338,73.153 241.289 C 79.919 247.501,90.904 242.464,90.789 233.203 C 90.701 226.215,84.303 220.975,77.864 222.619 M230.371 224.494 C 230.854 224.588,231.646 224.588,232.129 224.494 C 232.612 224.401,232.217 224.325,231.250 224.325 C 230.283 224.325,229.888 224.401,230.371 224.494 M207.941 229.590 C 222.298 229.647,245.677 229.647,259.894 229.590 C 274.110 229.533,262.363 229.487,233.789 229.487 C 205.215 229.487,193.583 229.533,207.941 229.590 M63.008 233.203 C 63.008 234.385,63.081 234.868,63.170 234.277 C 63.260 233.687,63.260 232.720,63.170 232.129 C 63.081 231.538,63.008 232.021,63.008 233.203 M181.801 287.109 C 181.801 290.869,181.860 292.407,181.931 290.527 C 182.003 288.647,182.003 285.571,181.931 283.691 C 181.860 281.812,181.801 283.350,181.801 287.109 M309.155 282.520 L 308.008 283.789 309.277 282.642 C 309.976 282.011,310.547 281.439,310.547 281.372 C 310.547 281.070,310.225 281.336,309.155 282.520 M200.370 287.793 L 199.023 289.258 200.488 287.912 C 201.852 286.659,202.133 286.328,201.834 286.328 C 201.769 286.328,201.110 286.987,200.370 287.793 M261.830 289.258 C 261.833 290.332,261.909 290.725,261.999 290.131 C 262.089 289.538,262.086 288.659,261.994 288.178 C 261.901 287.698,261.828 288.184,261.830 289.258 M181.792 299.023 C 181.793 301.816,181.855 302.908,181.931 301.449 C 182.006 299.989,182.005 297.704,181.929 296.370 C 181.853 295.037,181.792 296.230,181.792 299.023 M80.078 295.435 C 80.078 295.502,80.649 296.073,81.348 296.704 L 82.617 297.852 81.470 296.582 C 80.400 295.399,80.078 295.133,80.078 295.435 M286.558 296.839 C 284.670 298.773,284.193 297.980,292.344 306.457 L 299.335 313.729 299.261 316.337 C 299.096 322.141,303.991 325.458,309.218 323.084 C 316.616 319.724,312.500 308.575,304.369 309.949 L 302.879 310.200 295.735 302.756 C 287.598 294.279,288.494 294.857,286.558 296.839 M263.505 299.963 L 262.361 301.367 263.680 300.110 C 264.406 299.419,264.920 298.787,264.824 298.706 C 264.727 298.625,264.134 299.191,263.505 299.963 M215.488 301.246 C 214.683 302.330,214.076 303.256,214.141 303.305 C 214.205 303.353,217.158 305.761,220.703 308.656 C 224.248 311.550,228.768 315.190,230.748 316.744 C 234.237 319.483,234.339 319.608,234.068 320.820 C 231.255 333.411,247.380 340.376,253.670 329.286 C 258.827 320.194,248.903 309.864,239.487 314.523 L 237.372 315.569 228.744 308.657 C 223.999 304.855,219.405 301.189,218.535 300.510 L 216.952 299.276 215.488 301.246 M181.797 311.914 C 181.797 315.137,181.858 316.403,181.931 314.728 C 182.005 313.053,182.004 310.417,181.930 308.869 C 181.856 307.321,181.796 308.691,181.797 311.914 M132.595 321.289 C 132.595 327.734,132.648 330.426,132.714 327.270 C 132.779 324.115,132.780 318.841,132.714 315.551 C 132.649 312.262,132.595 314.844,132.595 321.289 M272.650 316.699 L 267.773 321.680 272.754 316.803 C 275.493 314.120,277.734 311.879,277.734 311.822 C 277.734 311.542,277.181 312.073,272.650 316.699 M292.699 316.992 C 292.701 318.281,292.774 318.762,292.861 318.059 C 292.948 317.357,292.946 316.303,292.857 315.716 C 292.768 315.129,292.697 315.703,292.699 316.992 M181.747 319.531 C 181.747 320.498,181.823 320.894,181.916 320.410 C 182.009 319.927,182.009 319.136,181.916 318.652 C 181.823 318.169,181.747 318.564,181.747 319.531 M181.758 325.781 C 181.758 326.963,181.831 327.446,181.920 326.855 C 182.010 326.265,182.010 325.298,181.920 324.707 C 181.831 324.116,181.758 324.600,181.758 325.781 M181.772 338.672 C 181.772 340.283,181.841 340.942,181.925 340.137 C 182.009 339.331,182.009 338.013,181.925 337.207 C 181.841 336.401,181.772 337.061,181.772 338.672 M251.074 349.104 C 251.558 349.197,252.349 349.197,252.832 349.104 C 253.315 349.011,252.920 348.935,251.953 348.935 C 250.986 348.935,250.591 349.011,251.074 349.104 " stroke="none" fill="#be2aad" fill-rule="evenodd"></path><path id="path2" d="M88.364 74.446 C 86.267 75.491,85.152 76.714,84.184 79.031 C 83.646 80.318,83.463 117.169,83.574 201.615 L 83.594 216.316 85.645 216.979 C 88.271 217.828,90.992 219.564,92.755 221.515 L 94.145 223.054 97.262 221.486 L 100.379 219.919 100.482 170.995 L 100.586 122.070 101.989 119.141 C 103.687 115.594,104.940 114.059,107.943 111.849 C 112.594 108.425,110.231 108.598,152.873 108.565 C 173.529 108.549,191.148 108.417,192.026 108.272 L 193.623 108.008 184.313 95.508 C 179.193 88.633,173.463 80.898,171.580 78.320 L 168.156 73.633 129.276 73.533 L 90.395 73.434 88.364 74.446 M245.270 182.738 C 243.868 183.954,229.387 195.783,227.897 196.928 C 227.658 197.112,226.775 196.979,225.874 196.625 C 219.622 194.169,213.975 201.361,217.716 207.014 C 221.567 212.834,230.729 209.946,230.585 202.956 C 230.548 201.113,230.647 200.896,232.020 199.805 C 241.080 192.608,250.359 184.638,250.129 184.252 C 248.197 181.010,247.509 180.795,245.270 182.738 M98.201 228.000 L 96.988 228.604 97.170 232.173 C 97.586 240.365,92.964 247.031,85.105 249.571 L 83.687 250.030 83.481 255.581 C 82.956 269.708,83.344 287.577,84.215 289.453 C 87.511 296.552,98.089 296.549,100.001 289.449 C 100.537 287.458,100.348 227.645,99.805 227.500 C 99.590 227.443,98.868 227.668,98.201 228.000 M309.052 247.041 C 303.039 249.000,300.005 255.252,302.135 261.290 L 302.707 262.913 293.912 271.568 L 285.117 280.224 286.896 282.002 L 288.674 283.781 297.383 275.077 L 306.093 266.374 307.832 267.163 C 312.991 269.503,319.461 266.989,321.844 261.719 C 325.577 253.462,317.563 244.266,309.052 247.041 M208.122 290.210 C 200.624 292.612,202.205 303.908,210.039 303.906 C 215.713 303.904,219.022 297.737,215.889 293.003 C 214.274 290.563,210.857 289.334,208.122 290.210 " stroke="none" fill="#09e6ed" fill-rule="evenodd"></path><path id="path3" d="M228.776 117.839 C 228.633 117.982,228.516 124.749,228.516 132.878 L 228.516 147.656 261.719 147.656 L 294.922 147.656 294.922 160.111 C 294.922 171.657,294.972 172.576,295.605 172.708 C 295.981 172.787,302.090 172.764,309.180 172.656 L 322.070 172.461 322.070 148.242 L 322.070 124.023 321.209 122.412 C 320.234 120.590,318.375 118.884,316.516 118.105 C 315.173 117.542,229.333 117.281,228.776 117.839 M187.305 172.611 C 176.637 175.388,178.276 191.060,189.242 191.130 C 195.287 191.169,199.850 185.544,198.455 179.774 C 197.254 174.811,191.948 171.403,187.305 172.611 M139.328 208.459 C 139.182 208.605,139.063 235.240,139.063 267.648 L 139.063 326.572 153.027 326.470 L 166.992 326.367 167.092 295.820 L 167.192 265.273 169.436 265.156 L 171.680 265.039 171.785 256.349 L 171.890 247.659 219.441 247.560 L 266.992 247.461 267.100 241.699 L 267.208 235.938 217.203 235.938 L 167.197 235.938 167.095 222.168 L 166.992 208.398 153.293 208.296 C 145.758 208.239,139.474 208.313,139.328 208.459 M275.327 279.107 C 271.679 280.277,268.748 284.225,268.434 288.390 C 267.491 300.899,285.069 304.567,289.033 292.688 C 291.916 284.051,284.090 276.297,275.327 279.107 " stroke="none" fill="#fae009" fill-rule="evenodd"></path><path id="path4" d="M0.000 200.000 L 0.000 400.000 200.000 400.000 L 400.000 400.000 400.000 200.000 L 400.000 0.000 200.000 0.000 L 0.000 0.000 0.000 200.000 M371.875 199.841 L 371.875 371.875 200.000 371.875 L 28.125 371.875 28.125 200.026 L 28.125 28.177 29.199 28.025 C 29.790 27.941,107.134 27.858,201.074 27.840 L 371.875 27.807 371.875 199.841 M40.234 200.000 L 40.234 359.766 200.000 359.766 L 359.766 359.766 359.766 200.000 L 359.766 40.234 200.000 40.234 L 40.234 40.234 40.234 200.000 M174.106 70.898 C 176.652 74.332,177.319 75.000,178.196 75.000 C 179.083 75.000,179.743 75.688,182.493 79.478 L 185.742 83.955 239.258 84.067 L 292.773 84.180 295.018 85.086 C 297.746 86.188,301.169 89.222,302.636 91.838 C 303.227 92.893,304.017 93.854,304.392 93.974 C 308.748 95.366,312.891 102.294,312.891 108.187 L 312.891 110.837 315.158 111.093 C 319.596 111.595,324.645 114.860,326.557 118.464 C 327.146 119.574,328.091 120.522,329.382 121.296 C 331.731 122.706,334.015 125.109,335.188 127.403 C 337.092 131.128,337.100 131.255,337.105 160.449 L 337.109 187.891 332.617 187.891 L 328.125 187.891 328.125 219.109 L 328.125 250.327 329.436 251.137 C 345.573 261.111,332.867 288.052,315.039 281.663 C 313.750 281.201,312.429 280.734,312.103 280.624 C 311.724 280.497,309.826 282.033,306.847 284.877 L 302.185 289.328 302.882 291.442 C 304.092 295.105,304.098 300.136,302.897 303.265 C 302.772 303.590,303.575 303.679,305.756 303.582 C 311.066 303.346,315.429 305.773,317.786 310.274 C 318.608 311.844,319.317 312.607,320.577 313.275 C 328.093 317.263,329.626 327.992,323.571 334.223 C 317.422 340.550,306.450 339.038,302.079 331.263 C 301.372 330.005,300.508 329.138,299.344 328.521 C 295.179 326.312,292.806 322.102,292.787 316.890 C 292.776 313.835,292.682 313.309,292.188 313.506 C 288.809 314.853,283.835 314.559,280.013 312.787 L 277.930 311.821 272.658 316.946 C 266.180 323.243,266.595 322.522,267.874 325.253 C 269.550 328.829,269.465 335.036,267.689 338.784 C 261.824 351.167,245.292 352.578,237.725 341.342 C 237.046 340.334,235.443 338.738,234.163 337.796 C 229.485 334.352,227.242 329.570,227.396 323.370 L 227.490 319.591 225.863 318.232 L 224.236 316.873 221.786 317.650 C 216.063 319.466,209.466 316.980,206.620 311.937 C 205.803 310.489,204.883 309.497,203.739 308.826 C 194.308 303.299,194.438 290.299,203.976 285.128 C 210.310 281.694,219.023 284.415,222.027 290.766 C 222.804 292.407,223.332 292.979,224.597 293.549 C 228.291 295.215,230.879 299.469,231.229 304.452 C 231.439 307.439,231.491 307.573,232.902 308.712 L 234.358 309.889 237.199 308.558 C 241.243 306.662,247.617 306.577,251.494 308.367 L 253.965 309.508 259.276 304.197 L 264.586 298.887 263.536 296.546 C 261.186 291.310,261.268 287.449,263.864 281.152 C 264.132 280.504,262.038 280.469,223.089 280.469 L 182.031 280.469 182.022 287.012 C 182.017 290.610,181.979 304.321,181.939 317.480 L 181.865 341.406 161.440 341.406 L 141.016 341.406 141.016 337.109 L 141.016 332.813 136.719 332.813 L 132.422 332.813 132.422 321.304 L 132.422 309.795 114.551 309.683 L 96.680 309.570 94.462 308.530 C 91.740 307.254,88.930 304.721,87.546 302.298 C 86.848 301.075,85.678 299.912,83.976 298.747 C 77.428 294.268,77.175 293.287,77.035 271.902 L 76.922 254.546 75.408 252.904 C 74.576 252.000,73.632 250.754,73.312 250.135 C 72.992 249.515,71.713 248.309,70.472 247.453 C 58.696 239.343,61.600 220.869,75.293 216.779 L 76.953 216.283 76.953 148.251 C 76.953 73.844,76.819 78.356,79.157 74.358 C 80.278 72.442,83.321 69.505,85.192 68.533 C 88.411 66.863,88.265 66.868,130.552 66.832 L 171.064 66.797 174.106 70.898 M144.451 180.762 C 144.355 190.591,144.317 198.689,144.365 198.757 C 144.414 198.825,147.679 197.360,151.621 195.503 C 155.564 193.645,162.158 190.539,166.276 188.602 L 173.764 185.080 173.553 183.040 C 171.873 166.758,194.493 159.621,202.930 173.771 C 203.586 174.873,204.703 176.078,205.469 176.512 C 210.155 179.169,214.103 186.630,213.048 190.834 C 212.755 191.999,214.259 193.301,215.160 192.663 C 219.397 189.659,225.013 189.038,229.390 191.090 L 231.632 192.140 236.929 187.808 C 240.819 184.626,242.162 183.309,241.984 182.851 C 236.058 167.522,259.599 157.201,266.758 171.990 C 267.279 173.067,268.040 173.908,268.847 174.301 C 276.850 178.194,278.461 189.902,271.820 195.901 C 267.391 199.903,261.944 200.580,255.816 197.890 C 255.366 197.693,253.644 198.883,249.785 202.060 L 244.384 206.506 244.360 210.773 C 244.281 224.918,226.244 229.970,219.940 217.613 C 219.412 216.578,218.523 215.741,217.094 214.935 C 213.450 212.879,210.934 209.393,210.319 205.551 C 210.111 204.249,209.785 203.741,208.749 203.100 L 207.441 202.292 204.424 203.783 C 198.556 206.683,191.159 205.731,186.504 201.476 L 184.333 199.493 179.060 202.048 C 176.160 203.454,173.797 204.711,173.808 204.841 C 173.819 204.971,173.828 206.407,173.828 208.030 L 173.828 210.982 177.832 210.908 L 181.836 210.834 181.836 220.066 L 181.836 229.297 235.059 229.297 L 288.281 229.297 288.311 196.777 C 288.328 178.892,288.400 163.950,288.472 163.574 C 288.596 162.925,284.964 162.891,216.613 162.891 L 144.624 162.891 144.451 180.762 M243.164 192.446 C 236.899 197.718,236.113 198.466,236.608 198.680 C 236.870 198.792,237.742 199.331,238.546 199.877 C 239.456 200.495,240.179 200.742,240.461 200.532 C 244.510 197.523,250.402 192.341,250.311 191.870 C 250.228 191.440,247.042 189.314,246.716 189.470 C 246.696 189.480,245.098 190.819,243.164 192.446 M165.262 196.202 L 154.547 201.367 159.053 201.477 L 163.558 201.586 168.205 199.383 C 170.761 198.171,174.332 196.490,176.141 195.647 L 179.430 194.115 177.917 192.565 C 176.056 190.660,177.793 190.161,165.262 196.202 M294.141 280.985 C 294.141 281.269,294.863 281.975,295.745 282.552 L 297.349 283.603 298.964 282.036 L 300.578 280.469 297.359 280.469 C 294.951 280.469,294.141 280.599,294.141 280.985 M263.739 308.722 L 258.543 313.929 259.209 315.326 C 260.707 318.468,261.108 318.317,267.045 312.386 C 272.887 306.552,273.166 305.879,270.482 304.121 C 269.137 303.239,269.368 303.081,263.739 308.722 " stroke="none" fill="#fbfbfb" fill-rule="evenodd"></path></g></svg>